<svg width="134" height="134" viewBox="0 0 134 134" fill="none" xmlns="http://www.w3.org/2000/svg">
<rect width="134" height="134" rx="40" fill="url(#paint0_linear_65_170)"/>
<path d="M96.0515 53.8659C96.7991 61.1916 91.4665 67.7364 84.1407 68.484C76.815 69.2316 70.2702 63.8989 69.5226 56.5732C68.775 49.2474 74.1077 42.7027 81.4334 41.9551C88.7592 41.2075 95.3039 46.5401 96.0515 53.8659ZM41.2645 83.1463C42.0121 90.472 36.6794 97.0168 29.3537 97.7644C22.0279 98.512 15.4832 93.1793 14.7356 85.8536C13.988 78.5278 19.3206 71.9831 26.6464 71.2355C33.9721 70.4879 40.5169 75.8205 41.2645 83.1463ZM82.7871 55.2195C81.7763 57.5061 81.777 57.5064 81.7775 57.5066C81.7773 57.5066 81.7776 57.5067 81.7774 57.5066C81.777 57.5064 81.7757 57.5058 81.7736 57.5049C81.7695 57.5031 81.7621 57.4999 81.7514 57.4952C81.7302 57.486 81.696 57.4713 81.6495 57.4514C81.5563 57.4117 81.4135 57.3516 81.2243 57.2741C80.8459 57.1191 80.2825 56.895 79.5606 56.6262C78.1158 56.0883 76.043 55.3742 73.554 54.679C68.5481 53.2808 61.9866 51.9954 55.5089 52.2946C49.0388 52.5934 42.8915 54.4558 38.348 59.1024C33.8144 63.7389 30.5 71.5346 30.5 84.4999L25.5 84.4999C25.5 70.7153 29.034 61.476 34.773 55.6068C40.5021 49.7477 48.0515 47.6337 55.2782 47.2999C62.4972 46.9665 69.6325 48.3923 74.8991 49.8633C77.5464 50.6028 79.7539 51.3629 81.3052 51.9405C82.0815 52.2295 82.6951 52.4734 83.1192 52.6471C83.3313 52.7339 83.4961 52.8033 83.6103 52.852C83.6674 52.8763 83.7119 52.8955 83.7433 52.9091C83.759 52.9159 83.7714 52.9214 83.7805 52.9254C83.7851 52.9274 83.7888 52.929 83.7917 52.9303C83.7931 52.9309 83.7947 52.9316 83.7954 52.9319C83.7967 52.9325 83.7979 52.933 82.7871 55.2195Z" fill="#00FFFF"/>
<rect x="94.5" y="28.5" width="37" height="64" rx="17.5" stroke="url(#paint1_linear_65_170)" stroke-width="5"/>
<circle cx="33" cy="84" r="20.5" fill="#25C5DF" stroke="#00FFFF" stroke-width="5"/>
<defs>
<linearGradient id="paint0_linear_65_170" x1="11" y1="9" x2="114.5" y2="123" gradientUnits="userSpaceOnUse">
<stop/>
<stop offset="1" stop-opacity="0.37"/>
</linearGradient>
<linearGradient id="paint1_linear_65_170" x1="92" y1="61" x2="118.508" y2="61" gradientUnits="userSpaceOnUse">
<stop stop-color="#00FFFF"/>
<stop offset="1" stop-color="#00FFFF" stop-opacity="0"/>
</linearGradient>
</defs>
</svg>
